# xmcd
#
# Track frame offsets:
#	150
#	16575
#	38746
#	58618
#	74769
#	93172
#	113993
#	128949
#	152306
#	172658
#	192416
#	204502
#	226920
#
# Disc length: 3257 seconds
#
# Revision: 1
# Processed by: cddbd v1.5PL3 Copyright (c) Steve Scherf et al.
# Submitted via: EasyCDDAExtractor 7.0.3.1
#
DISCID=9f0cb70d
DTITLE=Lionel Richie - Just For You
DYEAR=2004
DGENRE=R and B
TTITLE0=Just For You
TTITLE1=I Still Believe
TTITLE2=Long Long Way To Go
TTITLE3=Just To Be With You Again
TTITLE4=Heaven
TTITLE5=She's Amazing
TTITLE6=Ball And Chain
TTITLE7=Time Of Our Life
TTITLE8=Outrageous
TTITLE9=Road To Heaven
TTITLE10=Do Ya
TTITLE11=In My Dreams
TTITLE12=One World
EXTD=
EXTT0=
EXTT1=
EXTT2=
EXTT3=
EXTT4=
EXTT5=
EXTT6=
EXTT7=
EXTT8=
EXTT9=
EXTT10=
EXTT11=
EXTT12=
PLAYORDER=
